<?xml version="1.0" encoding="utf-8"?>
<!-- Generator: Adobe Illustrator 16.0.0, SVG Export Plug-In . SVG Version: 6.00 Build 0)  -->
<!DOCTYPE svg PUBLIC "-//W3C//DTD SVG 1.1//EN" "http://www.w3.org/Graphics/SVG/1.1/DTD/svg11.dtd">
<svg version="1.1" id="LOGO" xmlns="http://www.w3.org/2000/svg" xmlns:xlink="http://www.w3.org/1999/xlink" x="0px" y="0px"
	 width="639.573px" height="220.143px" viewBox="0 0 639.573 220.143" enable-background="new 0 0 639.573 220.143"
	 xml:space="preserve">
<g>
	<g>
		<path fill-rule="evenodd" clip-rule="evenodd" fill="#FFFFFF" d="M162.119,54.685c-13.54-11.291-31.616-29.555-42.383-29.127
			c-2.791,2.326-4.535,2.907-7.849,3.14c-5.624,0.064-6.869,3.611-7.326,7.326c-0.697,3.14-0.523,7.151,0.175,10.639
			c2.569,6.818,6.384,10.217,12.208,9.593c1.57,0,2.093,1.046,3.14,1.744c0.814-0.756,1.461-1.656,2.442-1.918
			c1.802-0.582,3.43-1.686,5.407-1.744c4.971,3.866,9.854,7.994,13.081,12.383c-0.55,2.261-0.613,4.424,0,6.453
			C144.7,69.139,156.416,57.075,162.119,54.685z"/>
		<path fill-rule="evenodd" clip-rule="evenodd" fill="#FFFFFF" d="M162.119,54.685c-5.703,2.39-17.419,14.454-21.104,18.488
			l1.632,7.42c2.914,0,5.51,7.413,12.296,7.326c6.761,0,8.548-6.867,11.686-6.889c2.11-6.506,9.543-15.497,14.683-22.194
			C176.484,59.239,165.089,60.711,162.119,54.685z"/>
		<path fill-rule="evenodd" clip-rule="evenodd" fill="#FFFFFF" d="M184.245,40.163c-9.472,3.21-18.236,8.056-22.126,14.522
			c2.971,6.027,14.366,4.554,19.192,4.151c2.548-3.319,4.532-6.075,5.026-7.685c0.055-4.046,1.892-10.718,9.737-12.148
			C191.2,39.518,188.187,39.776,184.245,40.163z"/>
		<path fill-rule="evenodd" clip-rule="evenodd" fill="#FFFFFF" d="M195.407,25.163c0.132,3.075-1.353,4.891-5.407,4.709
			c-2.819-0.794-5.405-1.737-7.903-2.417c-2.936-0.799-5.707-1.332-8.318-1.769l0.349,9.767c1.999,3.438,5.182,5.396,10.116,4.709
			c3.942-0.387,6.956-0.645,11.83-1.161c3.013-0.318,5.978-0.892,8.967-1.337c3.375-2.601,6.794-10.157,6.541-13.168
			c1.478-0.822,3.052-1.563,4.435-2.467c1.648-1.078,2.799-2.251,4.199-3.376c-0.042-5.83-2.89-7.548-6.647-8.736
			c-3.858-1.22-8.676-1.881-12.406-5.858c-4.765-0.818-9.595-0.662-12.906,1.046c-5.627-2.09-7.185-2.88-10.465-2.267
			c-2.903,0-4.941,3.406-5.232,6.104c0,4.774,2.307,7.674,5.581,7.674C189.198,17.087,194.582,19.551,195.407,25.163L195.407,25.163
			z M200.665,14.775c-1.287,0.427-2.367,1.229-3.786,2.584c-2.255-0.929-2.69-2.245-4.001-5.271
			c0.561-0.928,3.725-0.826,5.752,0.205c1.999,0.533,3.929,1.432,4.26,2.095C202.128,14.566,201.385,14.698,200.665,14.775z"/>
		<path fill-rule="evenodd" clip-rule="evenodd" fill="#FFFFFF" d="M192.877,12.089c1.977,2.351,4.669,3.023,7.787,2.687
			c0.662-0.22,1.379-0.34,2.225-0.386c-0.331-0.664-2.261-1.562-4.26-2.095C196.603,11.263,193.438,11.161,192.877,12.089z"/>
		<path fill-rule="evenodd" clip-rule="evenodd" fill="#FFFFFF" d="M201.163,4.059c3.729,3.977,8.548,4.638,12.406,5.858
			c4.416-0.582,8.384-1.593,11.838-3.242c-4.574-3.644-9.903-5.774-15.872-6.627C206.029-0.283,203.273,1.133,201.163,4.059z"/>
		<path fill-rule="evenodd" clip-rule="evenodd" fill="#FFFFFF" d="M213.568,9.917c3.758,1.188,6.605,2.906,6.647,8.736
			c3.354,0.803,10.335,3.858,14.825,6.977c1.752-5.454-1.922-15.165-9.635-18.955C221.952,8.324,217.984,9.335,213.568,9.917z"/>
		<path fill-rule="evenodd" clip-rule="evenodd" fill="#FFFFFF" d="M216.017,22.029c2.265,1.58,4.026,6.74,4.751,12.94
			c5.16,11.771,11.076,22.43,21.598,21.009c0.008-14.698-2.298-24.992-7.325-30.349c-4.49-3.119-11.471-6.173-14.825-6.977
			C218.816,19.778,217.665,20.952,216.017,22.029z"/>
		<path fill-rule="evenodd" clip-rule="evenodd" fill="#FFFFFF" d="M220.768,34.969c-4.089,5.311-3.846,18.582-0.071,28.042
			c7.398,10.436,14.795,11.542,22.193,2.909l-0.523-9.941C231.844,57.399,225.928,46.74,220.768,34.969z"/>
		<path fill-rule="evenodd" clip-rule="evenodd" fill="#FFFFFF" d="M205.042,37.665v7.238c1.047,9.645,9.424,16.342,15.655,18.108
			c-3.774-9.46-4.018-22.731,0.071-28.042c-0.725-6.2-2.486-11.36-4.751-12.94c-1.382,0.904-2.957,1.645-4.435,2.467
			C211.836,27.508,208.416,35.063,205.042,37.665z"/>
		<path fill-rule="evenodd" clip-rule="evenodd" fill="#FFFFFF" d="M196.074,39.002c-7.845,1.43-9.682,8.102-9.737,12.148
			c0.458,2.844,2.86,5.546,4.723,19.539c2.802-8.021,6.091-16.282,7.005-17.415c1.686-3.69,3.908-6.567,6.976-8.372v-7.238
			C202.052,38.11,199.087,38.684,196.074,39.002z"/>
		<path fill-rule="evenodd" clip-rule="evenodd" fill="#FFFFFF" d="M198.065,53.274c2.757,28.269,15.033,38.386,35.231,33.4
			c5.317-4.156,9.854-10.713,9.593-20.755c-7.397,8.634-14.795,7.527-22.193-2.909c-6.231-1.766-14.608-8.463-15.655-18.108
			C201.974,46.707,199.751,49.584,198.065,53.274z"/>
		<path fill-rule="evenodd" clip-rule="evenodd" fill="#FFFFFF" d="M191.06,70.689c-2.335,6.685-4.332,13.204-4.332,15.288
			c0.059,12.596,9.984,18.389,21.411,21.87c16.951-1.458,25.885-10.471,25.158-21.172c-20.198,4.986-32.475-5.131-35.231-33.4
			C197.151,54.408,193.862,62.669,191.06,70.689z"/>
		<path fill-rule="evenodd" clip-rule="evenodd" fill="#FFFFFF" d="M181.311,58.835c-5.14,6.697-12.573,15.688-14.683,22.194v6.627
			c1.368,14.181,23.63,20.148,33.356,20.148c3.519-0.001,5.866,0.02,8.155,0.042c-11.427-3.481-21.352-9.274-21.411-21.87
			c0-2.084,1.997-8.603,4.332-15.288c-1.862-13.993-4.265-16.695-4.723-19.539C185.843,52.761,183.859,55.517,181.311,58.835z"/>
		<path fill-rule="evenodd" clip-rule="evenodd" fill="#FFFFFF" d="M154.942,87.918c-6.787,0.087-9.382-7.326-12.296-7.326
			c-3.69,1.232-8.756,9.322-13.517,8.983c-4.566,0.671-9.165-5.54-13.128-6.051c-3.254,0.02-4.303,1.988-7.888,1.864
			c-4.822,1.955-4.622,9.2-4.622,14.389c0,8.773,1.361,13.065,7.413,15.087c2.084-0.283,1.498-1.502,3.663-1.047
			c1.273,1.595,1.647,3.426,6.104,2.965c15.15-1.179,27.598-11.491,39.417-15.784c4.079,0.463,6.3,4.346,13.881,10.63
			c10.765,8.924,24.975,19.995,25.341,24.779c0.307,3.957-10.243,15.884-10.094,26.944c-0.896,15.657,19.145,23.791,26.86,22.324
			c-3.72,6.443-5.724,10.172-9.593,14.041c-2.187,0.403-2.368,0.006-5.756,0.087c-2.809,0.146-7.796,4.148-7.238,8.372
			c1.149,5.201,6.292,7.075,10.378,8.459c6.606,1.447,13.745,2.996,16.22,3.488c8.767,0.498,5.398-9.164,6.279-12.732
			c5.818-5.871,21.02-22.701,23.895-31.743c0.16-2.547-5.761-1.482-9.68-1.482c-3.197,0.892-8.39-2.513-11.25-8.634
			c-0.284-1.5-0.175-4.921-0.175-8.022c1.258-4.448,2.292-9.527,5.407-12.646c2.851-0.477,4.723,1.495,6.541,1.744
			c2.461,0,6.24,0.346,9.07-0.087c11.892-3.135,20.191-11.154,21.802-24.768c0-3.024-0.262-5.867-0.262-9.854
			c-1.427-10.461-8.629-38.746-10.291-49.534c-0.358-5.187-0.804-9.544-0.262-14.04c0.823-4.859,3.521-11.947,8.11-11.947
			c4.428,0.167,6.116,3.424,6.279,6.366c0,3.263-4.69,7.901-5.931,12.035c-0.434,2.784-0.654,7.663,0.262,10.727
			c1.968,6.683,5.667,10.952,11.948,13.517c1.629,1.314,2.964,0.959,5.058,0.959c2.439,0.103-3.22-9.179-2.442-15.087
			c-0.368-3.591,0.325-7.61,1.489-10.731c-0.114-2.095-0.013-6.301,0.02-11.151c-0.551-8.054-7.816-16.351-16.333-16.577
			c-11.782,0.302-18.401,13.259-18.313,20.319c0,4.68,0.001,7.584,0,11.424c2.217,17.824,8.27,36.765,11.25,54.068
			c0.108,3.059,0.165,5.558-0.175,8.285c-0.345,8.453-6.147,13.94-13.43,16.046c-2.621,0-2.8,0.087-7.238,0.087
			c-11.892-4.12-17.289-17.527-25.726-28.778c-3.31,0-5.55-0.021-7.849-0.042c-2.289-0.021-4.636-0.042-8.155-0.042
			c-9.726,0-31.988-5.967-33.356-20.148v-6.627C163.49,81.052,161.704,87.918,154.942,87.918z"/>
		<path fill-rule="evenodd" clip-rule="evenodd" fill="#FFFFFF" d="M199.288,136.227l0-0.005l-0.001-0.005l-0.019-0.11l0-0.005
			l-0.001-0.006l-0.001-0.005c-0.016-0.085-0.036-0.173-0.06-0.262l-0.002-0.009c-0.023-0.087-0.051-0.177-0.082-0.268l-0.003-0.007
			c-0.142-0.416-0.358-0.865-0.641-1.345l-0.023-0.039c-0.054-0.091-0.11-0.183-0.169-0.275l-0.033-0.052
			c-0.174-0.271-0.368-0.552-0.579-0.84l-0.028-0.038c-0.069-0.093-0.139-0.188-0.211-0.282l-0.094-0.12l-0.149-0.191l-0.122-0.152
			l-0.184-0.226l-0.117-0.142l-0.117-0.14l-0.011-0.013l-0.164-0.192l-0.168-0.195l-0.172-0.195l-0.143-0.16l-0.088-0.099
			l-0.271-0.298l-0.073-0.079l-0.154-0.167l-0.191-0.204l-0.005-0.005l-0.18-0.19l-0.01-0.011l-0.199-0.208l-0.021-0.021
			l-0.164-0.169l-0.018-0.019l-0.206-0.211l-0.008-0.009l-0.162-0.164l-0.039-0.039l-0.213-0.214l-0.164-0.163l-0.108-0.106
			l-0.312-0.308l-0.118-0.114l-0.181-0.177l-0.228-0.22l-0.015-0.014l-0.202-0.193l-0.015-0.015l-0.234-0.223l-0.204-0.192
			l-0.034-0.031l-0.239-0.225l-0.047-0.045l-0.196-0.182l-0.245-0.227l-0.003-0.003l-0.245-0.226l-0.25-0.229l-0.252-0.229
			l-0.165-0.149l-0.09-0.082l-0.257-0.231l-0.259-0.233l-0.261-0.233l-0.074-0.066l-0.189-0.168l-0.266-0.235l-0.026-0.023
			l-0.241-0.213l-0.031-0.027l-0.509-0.446l-0.005-0.005l-0.395-0.343l-0.047-0.042l-0.088-0.076l-0.044-0.039l-0.401-0.347l0-0.001
			l-0.014-0.012l-0.454-0.391l-0.054-0.046l-0.015-0.013l-0.015-0.013l-0.015-0.013l-0.015-0.013l-0.015-0.012l-0.015-0.013
			l-0.015-0.013l-0.015-0.013l-0.015-0.013l-0.015-0.013l-0.015-0.013l-0.015-0.013l-0.015-0.013l-0.015-0.013l-0.006-0.005
			l-0.009-0.008l-0.015-0.013l-0.015-0.013l-0.015-0.012l-0.015-0.014l-0.015-0.012l-0.015-0.013l-0.015-0.013l-0.015-0.013
			l-0.015-0.013l-0.015-0.013l-0.015-0.013l-0.015-0.013l-0.015-0.013l-0.015-0.013l-0.015-0.012l-0.015-0.013l-0.015-0.014
			l-0.015-0.012l-0.015-0.013l-0.015-0.013l-0.015-0.013l-0.03-0.025l-0.015-0.013l-0.015-0.013l-0.015-0.013l-0.015-0.013
			l-0.015-0.013l-0.015-0.013l-0.015-0.013l-0.015-0.013l-0.015-0.013l-0.015-0.012l-0.015-0.014l-0.001-0.001l-0.014-0.011
			l-0.015-0.013l-0.015-0.013l-0.015-0.013l-0.015-0.013l-0.015-0.013l-0.015-0.013l-0.015-0.013l-0.015-0.013l-0.015-0.013
			l-0.015-0.013l-0.015-0.013l-0.015-0.013l-0.015-0.013l-0.015-0.013l-0.069-0.059l-0.047-0.04l-0.047-0.04l-0.047-0.04
			l-0.047-0.04l-0.039-0.033l-0.008-0.007l-0.047-0.04l-0.047-0.04l-0.047-0.04l-0.047-0.04l-0.047-0.04l-0.047-0.04l-0.047-0.04
			l-0.047-0.04l-0.047-0.04l-0.047-0.04l-0.04-0.034l-0.007-0.006l-0.047-0.04l-0.047-0.04l-0.048-0.04l-0.047-0.04l-0.047-0.04
			l-0.048-0.04l-0.047-0.04l-0.048-0.04l-0.048-0.04l-0.047-0.04l-0.042-0.036l-0.006-0.004l-0.048-0.04l-0.048-0.041l-0.048-0.04
			l-0.047-0.04l-0.048-0.04l-0.048-0.04l-0.048-0.04l-0.048-0.04l-0.048-0.04l-0.048-0.041l-0.043-0.036l-0.004-0.004l-0.048-0.04
			l-0.048-0.04l-0.048-0.04l-0.048-0.04l-0.048-0.041l-0.048-0.04l-0.048-0.04l-0.048-0.04l-0.048-0.04l-0.048-0.04l-0.045-0.038
			l-0.003-0.003l-0.048-0.04l-0.048-0.04l-0.048-0.04l-0.048-0.04l-0.048-0.04l-0.048-0.041l-0.048-0.04l-0.048-0.04l-0.048-0.04
			l-0.095-0.08l-0.001-0.001l-0.048-0.04l-0.097-0.08l-0.049-0.041l-0.339-0.281l-1.071-0.888l-0.537-0.443l-0.15-0.123
			l-0.387-0.319l-0.537-0.441l-0.536-0.441l-0.535-0.438l-0.104-0.085l-0.43-0.354l-0.531-0.437l-0.08-0.065l-0.449-0.369
			l-0.068-0.056l-0.458-0.377l-0.523-0.431l-0.045-0.037l-0.475-0.391l-0.033-0.028l-0.482-0.397l-0.512-0.423l-0.011-0.009
			l-0.496-0.411c-18.987-0.913-30.957,8.019-24.694,30.357l-0.168-0.071l-0.167-0.071l-0.167-0.07l-0.167-0.071l-0.168-0.07
			l-0.167-0.071l-0.167-0.07l-0.168-0.071l-0.167-0.071l-0.167-0.07l-0.167-0.071l-0.168-0.07l-0.167-0.071l-0.167-0.07
			l-0.168-0.071l-0.167-0.07l-0.167-0.071l-0.167-0.071l-0.168-0.07l-0.167-0.07l-0.167-0.071l-0.167-0.071l-0.168-0.07
			l-0.167-0.071l-0.167-0.07l-0.167-0.071l-0.168-0.07l-0.167-0.071l-0.167-0.071l-0.167-0.07l-0.168-0.071l-0.167-0.07
			l-0.167-0.071l-0.167-0.07l-0.168-0.071l-0.167-0.071l-0.167-0.07l-0.167-0.071l-0.168-0.07l-0.167-0.071l-0.167-0.07
			l-0.167-0.071l-0.167-0.07l-0.168-0.071l-0.167-0.07l-0.167-0.071l-0.167-0.07l-0.168-0.071l-0.167-0.071l-0.167-0.07
			l-0.167-0.071l-0.168-0.07l-0.167-0.071l-0.167-0.07l-0.167-0.071l-0.168-0.07l-0.167-0.071l-0.167-0.07l-0.167-0.071
			l-0.167-0.071l-0.168-0.07l-0.167-0.071l-0.167-0.07l-0.167-0.071c-1.919-1.221-0.436-4.447-0.785-6.279
			c-1.561-3.783-4.282-6.977-8.721-6.977c-4.217,0-11.686,7.75-11.686,11.25c0,1.997,2.617,2.791,2.617,4.709
			c-0.267,1.434-0.803,2.423-0.803,4.3c0.072,3.006,1.051,5.106,2.721,6.776c16.594,11.441,35.614,19.802,56.423,25.9
			c-2.265-5.842-4.158-11.915-5.494-18.227v-0.155v-0.155v-0.155v-0.155v-0.155v-0.155v-0.156v-0.155v-0.155v-0.155v-0.155v-0.155
			v-0.155l0-0.155v-0.155v-0.155v-0.155v-0.155v-0.155v-0.155v-0.155v-0.156v-0.155v-0.155v-0.155v-0.155v-0.155v-0.155V154.4
			v-0.155v-0.155v-0.155v-0.155v-0.155v-0.155v-0.156v-0.155v-0.155v-0.155v-0.155v-0.155v-0.155v-0.155v-0.155v-0.155v-0.155
			v-0.155v-0.155v-0.155v-0.155v-0.156v-0.155v-0.155v-0.155v-0.155v-0.155v-0.155v-0.155v-0.155v-0.155v-0.155v-0.155v-0.155
			v-0.155c3.718-7.513,9.855-12.885,26.489-12.555v-0.003l0-0.003c-0.004-0.055-0.012-0.112-0.02-0.17l0-0.003L199.288,136.227
			L199.288,136.227z M172.82,148.963v0.155V148.963c3.718-7.513,9.855-12.885,26.489-12.555
			C182.675,136.079,176.538,141.451,172.82,148.963L172.82,148.963z M172.82,149.274v0.155V149.274v-0.155v-0.155
			c3.718-7.513,9.855-12.885,26.489-12.555c-16.634-0.33-22.771,5.042-26.489,12.555v0.155V149.274L172.82,149.274z M172.82,149.584
			v0.155V149.584v-0.155v-0.155v-0.155v0.155v0.155V149.584L172.82,149.584z M172.82,149.895v0.155V149.895v-0.155v-0.155v-0.155
			v0.155v0.155V149.895L172.82,149.895z M172.82,150.206v0.155V150.206v-0.155v-0.155v-0.155v0.155v0.155V150.206L172.82,150.206z
			 M172.82,150.516v0.155V150.516v-0.155v-0.155v-0.155v0.155v0.155V150.516L172.82,150.516z M172.82,150.827v0.155V150.827v-0.155
			v-0.155v-0.155v0.155v0.155V150.827L172.82,150.827z M172.82,151.138v0.155V151.138v-0.156v-0.155v-0.155v0.155v0.155V151.138
			L172.82,151.138z M172.82,151.449v0.155V151.449v-0.155v-0.155v-0.156v0.156v0.155V151.449L172.82,151.449z M172.82,151.759v0.155
			V151.759v-0.155v-0.155v-0.155v0.155v0.155V151.759L172.82,151.759z M172.82,152.07v0.155V152.07v-0.155v-0.155v-0.155v0.155
			v0.155V152.07L172.82,152.07z M172.82,152.38v0.155V152.38v-0.155v-0.155v-0.155v0.155v0.155V152.38L172.82,152.38z
			 M172.82,152.691v0.155V152.691v-0.155v-0.155v-0.155v0.155v0.155V152.691L172.82,152.691z M172.82,153.001v0.155V153.001v-0.155
			v-0.155v-0.155v0.155v0.155V153.001L172.82,153.001z M172.82,153.312v0.156V153.312v-0.155v-0.155v-0.155v0.155v0.155V153.312
			L172.82,153.312z M172.82,153.624v0.155V153.624v-0.155v-0.156v-0.155v0.155v0.156V153.624L172.82,153.624z M172.82,153.934v0.155
			V153.934v-0.155v-0.155v-0.155v0.155v0.155V153.934L172.82,153.934z M172.82,154.245v0.155V154.245v-0.155v-0.155v-0.155v0.155
			v0.155V154.245L172.82,154.245z M172.82,154.555v0.155V154.555V154.4v-0.155v-0.155v0.155v0.155V154.555L172.82,154.555z
			 M172.82,154.866v0.155V154.866v-0.155v-0.155V154.4v0.155v0.155V154.866L172.82,154.866z M172.82,155.176v0.155V155.176v-0.155
			v-0.155v-0.155v0.155v0.155V155.176L172.82,155.176z M172.82,155.487v0.156V155.487v-0.155v-0.155v-0.155v0.155v0.155V155.487
			L172.82,155.487z M172.82,155.798v0.155V155.798v-0.155v-0.156v-0.155v0.155v0.156V155.798L172.82,155.798z M172.82,156.109v0.155
			V156.109v-0.155v-0.155v-0.155v0.155v0.155V156.109L172.82,156.109z M172.82,156.419v0.155V156.419v-0.155v-0.155v-0.155v0.155
			v0.155V156.419L172.82,156.419z M172.82,156.73l0,0.155L172.82,156.73v-0.155v-0.155v-0.155v0.155v0.155V156.73L172.82,156.73z
			 M172.819,157.041v0.155V157.041v-0.155l0-0.155v-0.155v0.155l0,0.155V157.041L172.819,157.041z M172.819,157.351v0.155V157.351
			v-0.155v-0.155v-0.155v0.155v0.155V157.351L172.819,157.351z M172.819,157.662v0.155V157.662v-0.155v-0.155v-0.155v0.155v0.155
			V157.662L172.819,157.662z M172.819,157.973v0.155V157.973v-0.156v-0.155v-0.155v0.155v0.155V157.973L172.819,157.973z
			 M172.819,158.284v0.155V158.284v-0.155v-0.155v-0.156v0.156v0.155V158.284L172.819,158.284z M172.819,158.594v0.155V158.594
			v-0.155v-0.155v-0.155v0.155v0.155V158.594L172.819,158.594z M172.819,158.905c1.336,6.312,3.229,12.385,5.494,18.227
			C176.049,171.29,174.155,165.216,172.819,158.905v-0.155v-0.155v-0.155v0.155v0.155V158.905L172.819,158.905z M121.891,151.231
			c-1.67-1.67-2.649-3.771-2.721-6.776C119.241,147.46,120.221,149.561,121.891,151.231c16.594,11.441,35.614,19.802,56.423,25.9
			c-2.265-5.842-4.158-11.915-5.494-18.227v-0.155v0.155c1.336,6.312,3.229,12.385,5.494,18.227
			C157.505,171.033,138.485,162.672,121.891,151.231L121.891,151.231z M119.972,140.155c0-1.918-2.617-2.712-2.617-4.709
			C117.355,137.443,119.972,138.237,119.972,140.155c-0.267,1.434-0.803,2.423-0.803,4.3c0.072,3.006,1.051,5.106,2.721,6.776
			c16.594,11.441,35.614,19.802,56.423,25.9c-20.809-6.099-39.829-14.459-56.423-25.9c-1.67-1.67-2.649-3.771-2.721-6.776
			C119.169,142.578,119.705,141.588,119.972,140.155L119.972,140.155z M129.042,124.196c4.438,0,7.16,3.193,8.721,6.977
			C136.202,127.389,133.48,124.196,129.042,124.196c-4.217,0-11.686,7.75-11.686,11.25c0,1.997,2.617,2.791,2.617,4.709
			c-0.267,1.434-0.803,2.423-0.803,4.3c0-1.877,0.536-2.866,0.803-4.3c0-1.918-2.617-2.712-2.617-4.709
			C117.355,131.946,124.825,124.196,129.042,124.196L129.042,124.196z M138.547,137.452l0.167,0.071L138.547,137.452
			c-1.919-1.221-0.436-4.447-0.785-6.279c-1.561-3.783-4.282-6.977-8.721-6.977c-4.217,0-11.686,7.75-11.686,11.25
			c0-3.5,7.469-11.25,11.686-11.25c4.438,0,7.16,3.193,8.721,6.977C138.111,133.004,136.628,136.231,138.547,137.452
			L138.547,137.452z M138.882,137.593l0.167,0.071L138.882,137.593l-0.167-0.07l-0.167-0.071c-1.919-1.221-0.436-4.447-0.785-6.279
			c0.349,1.832-1.134,5.059,0.785,6.279l0.167,0.071L138.882,137.593L138.882,137.593z M139.218,137.735l0.167,0.071
			L139.218,137.735l-0.168-0.07l-0.167-0.071l-0.167-0.07l0.167,0.07l0.167,0.071L139.218,137.735L139.218,137.735z
			 M139.553,137.877l0.167,0.07L139.553,137.877l-0.167-0.071l-0.167-0.071l-0.168-0.07l0.168,0.07l0.167,0.071L139.553,137.877
			L139.553,137.877z M139.888,138.019l0.168,0.07L139.888,138.019l-0.167-0.071l-0.167-0.07l-0.167-0.071l0.167,0.071l0.167,0.07
			L139.888,138.019L139.888,138.019z M140.223,138.161l0.167,0.07L140.223,138.161l-0.167-0.071l-0.168-0.07l-0.167-0.071
			l0.167,0.071l0.168,0.07L140.223,138.161L140.223,138.161z M140.558,138.302l0.168,0.07L140.558,138.302l-0.167-0.071l-0.167-0.07
			l-0.167-0.071l0.167,0.071l0.167,0.07L140.558,138.302L140.558,138.302z M140.894,138.444l0.167,0.07L140.894,138.444
			l-0.167-0.071l-0.168-0.07l-0.167-0.071l0.167,0.071l0.168,0.07L140.894,138.444L140.894,138.444z M141.229,138.585l0.168,0.071
			L141.229,138.585l-0.167-0.071l-0.167-0.07l-0.167-0.071l0.167,0.071l0.167,0.07L141.229,138.585L141.229,138.585z
			 M141.564,138.727l0.167,0.071L141.564,138.727l-0.167-0.07l-0.168-0.071l-0.167-0.071l0.167,0.071l0.168,0.071L141.564,138.727
			L141.564,138.727z M141.899,138.869l0.168,0.071L141.899,138.869l-0.167-0.07l-0.167-0.071l-0.167-0.07l0.167,0.07l0.167,0.071
			L141.899,138.869L141.899,138.869z M142.234,139.01l0.167,0.071L142.234,139.01l-0.167-0.07l-0.168-0.071l-0.167-0.07l0.167,0.07
			l0.168,0.071L142.234,139.01L142.234,139.01z M142.569,139.152l0.167,0.071L142.569,139.152l-0.167-0.07l-0.167-0.071l-0.167-0.07
			l0.167,0.07l0.167,0.071L142.569,139.152L142.569,139.152z M142.905,139.293l0.167,0.071L142.905,139.293l-0.168-0.07
			l-0.167-0.071l-0.167-0.07l0.167,0.07l0.167,0.071L142.905,139.293L142.905,139.293z M143.24,139.435l0.167,0.071L143.24,139.435
			l-0.167-0.07l-0.167-0.071l-0.168-0.07l0.168,0.07l0.167,0.071L143.24,139.435L143.24,139.435z M143.575,139.578l0.167,0.07
			L143.575,139.578l-0.168-0.071l-0.167-0.071l-0.167-0.07l0.167,0.07l0.167,0.071L143.575,139.578L143.575,139.578z
			 M143.91,139.719l0.167,0.07L143.91,139.719l-0.167-0.071l-0.167-0.07l-0.168-0.071l0.168,0.071l0.167,0.07L143.91,139.719
			L143.91,139.719z M144.246,139.861l0.167,0.07L144.246,139.861l-0.168-0.071l-0.167-0.07l-0.167-0.071l0.167,0.071l0.167,0.07
			L144.246,139.861L144.246,139.861z M144.581,140.002l0.167,0.071L144.581,140.002l-0.167-0.071l-0.167-0.07l-0.168-0.071
			l0.168,0.071l0.167,0.07L144.581,140.002L144.581,140.002z M144.916,140.144l0.167,0.071L144.916,140.144l-0.168-0.07
			l-0.167-0.071l-0.167-0.071l0.167,0.071l0.167,0.071L144.916,140.144L144.916,140.144z M145.251,140.286l0.167,0.071
			L145.251,140.286l-0.167-0.07l-0.167-0.071l-0.168-0.07l0.168,0.07l0.167,0.071L145.251,140.286L145.251,140.286z
			 M145.586,140.427l0.167,0.071L145.586,140.427l-0.168-0.07l-0.167-0.071l-0.167-0.07l0.167,0.07l0.167,0.071L145.586,140.427
			L145.586,140.427z M145.921,140.57l0.167,0.07L145.921,140.57l-0.167-0.071l-0.167-0.071l-0.168-0.07l0.168,0.07l0.167,0.071
			L145.921,140.57L145.921,140.57z M146.257,140.71l0.167,0.071L146.257,140.71l-0.168-0.07l-0.167-0.07l-0.167-0.071l0.167,0.071
			l0.167,0.07L146.257,140.71L146.257,140.71z M146.592,140.853l0.167,0.07L146.592,140.853l-0.167-0.071l-0.167-0.071l-0.168-0.07
			l0.168,0.07l0.167,0.071L146.592,140.853L146.592,140.853z M146.927,140.995l0.167,0.07L146.927,140.995l-0.168-0.071l-0.167-0.07
			l-0.167-0.071l0.167,0.071l0.167,0.07L146.927,140.995L146.927,140.995z M147.262,141.136l0.168,0.07L147.262,141.136
			l-0.167-0.071l-0.167-0.07l-0.168-0.071l0.168,0.071l0.167,0.07L147.262,141.136L147.262,141.136z M147.598,141.278l0.167,0.07
			L147.598,141.278l-0.167-0.071l-0.168-0.07l-0.167-0.071l0.167,0.071l0.168,0.07L147.598,141.278L147.598,141.278z
			 M147.933,141.419l0.168,0.071L147.933,141.419l-0.167-0.071l-0.167-0.07l-0.167-0.071l0.167,0.071l0.167,0.07L147.933,141.419
			L147.933,141.419z M148.268,141.561l0.167,0.071L148.268,141.561l-0.167-0.07l-0.168-0.071l-0.167-0.071l0.167,0.071l0.168,0.071
			L148.268,141.561L148.268,141.561z M148.604,141.703l0.167,0.071L148.604,141.703l-0.168-0.07l-0.167-0.071l-0.167-0.07
			l0.167,0.07l0.167,0.071L148.604,141.703L148.604,141.703z M148.938,141.844l0.167,0.071L148.938,141.844l-0.167-0.07
			l-0.167-0.071l-0.168-0.07l0.168,0.07l0.167,0.071L148.938,141.844L148.938,141.844z M149.274,141.987
			c-6.263-22.339,5.708-31.271,24.694-30.357C154.981,110.716,143.011,119.648,149.274,141.987l-0.168-0.071l-0.167-0.071
			l-0.167-0.07l0.167,0.07l0.167,0.071L149.274,141.987z M149.274,141.987l-0.168-0.071L149.274,141.987
			c-6.263-22.339,5.708-31.271,24.694-30.357C154.981,110.716,143.011,119.648,149.274,141.987z M149.274,141.987l-0.168-0.071
			l-0.167-0.071l-0.167-0.07l-0.167-0.071l-0.168-0.07l-0.167-0.071l-0.167-0.07l-0.168-0.071l-0.167-0.071l-0.167-0.07
			l-0.167-0.071l-0.168-0.07l-0.167-0.071l-0.167-0.07l-0.168-0.071l-0.167-0.07l-0.167-0.071l-0.167-0.071l-0.168-0.07l-0.167-0.07
			l-0.167-0.071l-0.167-0.071l-0.168-0.07l-0.167-0.071l-0.167-0.07l-0.167-0.071l-0.168-0.07l-0.167-0.071l-0.167-0.071
			l-0.167-0.07l-0.168-0.071l-0.167-0.07l-0.167-0.071l-0.167-0.07l-0.168-0.071l-0.167-0.071l-0.167-0.07l-0.167-0.071l-0.168-0.07
			l-0.167-0.071l-0.167-0.07l-0.167-0.071l-0.167-0.07l-0.168-0.071l-0.167-0.07l-0.167-0.071l-0.167-0.07l-0.168-0.071
			l-0.167-0.071l-0.167-0.07l-0.167-0.071l-0.168-0.07l-0.167-0.071l-0.167-0.07l-0.167-0.071l-0.168-0.07l-0.167-0.071l-0.167-0.07
			l-0.167-0.071l-0.167-0.071l-0.168-0.07l-0.167-0.071l-0.167-0.07l-0.167-0.071c-1.919-1.221-0.436-4.447-0.785-6.279
			c-1.561-3.783-4.282-6.977-8.721-6.977c-4.217,0-11.686,7.75-11.686,11.25c0,1.997,2.617,2.791,2.617,4.709
			c-0.267,1.434-0.803,2.423-0.803,4.3c0.072,3.006,1.051,5.106,2.721,6.776c16.594,11.441,35.614,19.802,56.423,25.9
			c-2.265-5.842-4.158-11.915-5.494-18.227v-0.155v-0.155v-0.155v-0.155v-0.155v-0.155v-0.156v-0.155v-0.155v-0.155v-0.155v-0.155
			v-0.155l0-0.155v-0.155v-0.155v-0.155v-0.155v-0.155v-0.155v-0.155v-0.156v-0.155v-0.155v-0.155v-0.155v-0.155v-0.155V154.4
			v-0.155v-0.155v-0.155v-0.155v-0.155v-0.155v-0.156v-0.155v-0.155v-0.155v-0.155v-0.155v-0.155v-0.155v-0.155v-0.155v-0.155
			v-0.155v-0.155v-0.155v-0.155v-0.156v-0.155v-0.155v-0.155v-0.155v-0.155v-0.155v-0.155v-0.155v-0.155v-0.155v-0.155v-0.155
			v-0.155c3.718-7.513,9.855-12.885,26.489-12.555c-16.634-0.33-22.771,5.042-26.489,12.555v0.155v0.155v0.155v0.155v0.155v0.155
			v0.155v0.155v0.155v0.155v0.155v0.155v0.155v0.156v0.155v0.155v0.155v0.155v0.155v0.155v0.155v0.155v0.155v0.155v0.155v0.155
			v0.155v0.155v0.156v0.155v0.155v0.155v0.155v0.155v0.155v0.155v0.155v0.155v0.155v0.155v0.155v0.155v0.156v0.155v0.155v0.155
			v0.155v0.155v0.155v0.155l0,0.155v0.155v0.155v0.155v0.155v0.155v0.155v0.156v0.155v0.155v0.155v0.155v0.155v0.155
			c1.336,6.312,3.229,12.385,5.494,18.227c-20.809-6.099-39.829-14.459-56.423-25.9c-1.67-1.67-2.649-3.771-2.721-6.776
			c0-1.877,0.536-2.866,0.803-4.3c0-1.918-2.617-2.712-2.617-4.709c0-3.5,7.469-11.25,11.686-11.25c4.438,0,7.16,3.193,8.721,6.977
			c0.349,1.832-1.134,5.059,0.785,6.279l0.167,0.071l0.167,0.07l0.167,0.071l0.168,0.07l0.167,0.071l0.167,0.071l0.167,0.07
			l0.167,0.071l0.168,0.07l0.167,0.071l0.167,0.07l0.167,0.071l0.168,0.07l0.167,0.071l0.167,0.07l0.167,0.071l0.168,0.071
			l0.167,0.07l0.167,0.071l0.167,0.07l0.168,0.071l0.167,0.07l0.167,0.071l0.167,0.07l0.167,0.071l0.168,0.07l0.167,0.071
			l0.167,0.07l0.167,0.071l0.168,0.071l0.167,0.07l0.167,0.071l0.167,0.07l0.168,0.071l0.167,0.07l0.167,0.071l0.167,0.071
			l0.168,0.07l0.167,0.071l0.167,0.07l0.167,0.071l0.168,0.07l0.167,0.071l0.167,0.071l0.167,0.07l0.168,0.07l0.167,0.071
			l0.167,0.071l0.167,0.07l0.168,0.071l0.167,0.07l0.167,0.071l0.168,0.07l0.167,0.071l0.167,0.07l0.167,0.071l0.168,0.071
			l0.167,0.07l0.167,0.071l0.168,0.07l0.167,0.071l0.167,0.07l0.167,0.071L149.274,141.987
			c-6.263-22.339,5.708-31.271,24.694-30.357C154.981,110.716,143.011,119.648,149.274,141.987z"/>
		
			<path fill-rule="evenodd" clip-rule="evenodd" fill="none" stroke="#000000" stroke-width="3.2958" stroke-linejoin="round" stroke-miterlimit="4.4287" d="
			M173.718,25.645c-13.841-1.912-24.741-4.666-25.291-14.738C143.682,24.242,159.811,26.518,173.718,25.645L173.718,25.645z
			 M201.163,4.059c3.729,3.977,8.548,4.638,12.406,5.858c3.758,1.188,6.605,2.906,6.647,8.736 M216.017,22.029
			c2.265,1.58,4.026,6.74,4.751,12.94c5.16,11.771,11.076,22.43,21.598,21.009 M205.042,44.902
			c1.047,9.645,9.424,16.342,15.655,18.108c7.398,10.436,14.795,11.542,22.193,2.909 M286.887,79.982
			c2.439,0.103-3.22-9.179-2.442-15.087c-0.368-3.591,0.325-7.61,1.489-10.731c-0.114-2.095-0.013-6.301,0.02-11.151
			c-0.551-8.054-7.816-16.351-16.333-16.577c-11.782,0.302-18.401,13.259-18.313,20.319c0,4.68,0.001,7.584,0,11.424
			c2.217,17.824,8.27,36.765,11.25,54.068c0.108,3.059,0.165,5.558-0.175,8.285c-0.345,8.453-6.147,13.94-13.43,16.046
			c-2.621,0-2.8,0.087-7.238,0.087c-11.892-4.12-17.289-17.527-25.726-28.778c-3.31,0-5.55-0.021-7.849-0.042
			c-2.289-0.021-4.636-0.042-8.155-0.042c-9.726,0-31.988-5.967-33.356-20.148c0-2.611,0-3.489,0-6.627
			c-3.138,0.022-4.924,6.889-11.686,6.889c-6.787,0.087-9.382-7.326-12.296-7.326c-3.69,1.232-8.756,9.322-13.517,8.983
			c-4.566,0.671-9.165-5.54-13.128-6.051c-3.254,0.02-4.303,1.988-7.888,1.864c-4.822,1.955-4.622,9.2-4.622,14.389
			c0,8.773,1.361,13.065,7.413,15.087c2.084-0.283,1.498-1.502,3.663-1.047c1.273,1.595,1.647,3.426,6.104,2.965
			c15.15-1.179,27.598-11.491,39.417-15.784c4.079,0.463,6.3,4.346,13.881,10.63c10.765,8.924,24.975,19.995,25.341,24.779
			c0.307,3.957-10.243,15.884-10.094,26.944c-0.896,15.657,19.145,23.791,26.86,22.324c-3.72,6.443-5.724,10.172-9.593,14.041
			c-2.187,0.403-2.368,0.006-5.756,0.087c-2.809,0.146-7.796,4.148-7.238,8.372c1.149,5.201,6.292,7.075,10.378,8.459
			c6.606,1.447,13.745,2.996,16.22,3.488c8.767,0.498,5.398-9.164,6.279-12.732c5.818-5.871,21.02-22.701,23.895-31.743
			c0.16-2.547-5.761-1.482-9.68-1.482c-3.197,0.892-8.39-2.513-11.25-8.634c-0.284-1.5-0.175-4.921-0.175-8.022
			c1.258-4.448,2.292-9.527,5.407-12.646c2.851-0.477,4.723,1.495,6.541,1.744c2.461,0,6.24,0.346,9.07-0.087
			c11.892-3.135,20.191-11.154,21.802-24.768c0-3.024-0.262-5.867-0.262-9.854c-1.427-10.461-8.629-38.746-10.291-49.534
			c-0.358-5.187-0.804-9.544-0.262-14.04c0.823-4.859,3.521-11.947,8.11-11.947c4.428,0.167,6.116,3.424,6.279,6.366
			c0,3.263-4.69,7.901-5.931,12.035c-0.434,2.784-0.654,7.663,0.262,10.727c1.968,6.683,5.667,10.952,11.948,13.517
			C283.458,80.337,284.793,79.982,286.887,79.982L286.887,79.982z M198.065,53.274c2.757,28.269,15.033,38.386,35.231,33.4
			 M199.309,136.409c-16.634-0.33-22.771,5.042-26.489,12.555c0,3.313,0,6.627,0,9.941c1.336,6.312,3.229,12.385,5.494,18.227
			c-20.809-6.099-39.829-14.459-56.423-25.9c-1.67-1.67-2.649-3.771-2.721-6.776c0-1.877,0.536-2.866,0.803-4.3
			c0-1.918-2.617-2.712-2.617-4.709c0-3.5,7.469-11.25,11.686-11.25c4.438,0,7.16,3.193,8.721,6.977
			c0.349,1.832-1.134,5.059,0.785,6.279c3.575,1.512,7.15,3.023,10.727,4.535c-6.263-22.339,5.708-31.271,24.694-30.357
			 M208.139,107.847c16.951-1.458,25.885-10.471,25.158-21.172c5.317-4.156,9.854-10.713,9.593-20.755
			c-0.174-3.314-0.349-6.628-0.523-9.941c0.008-14.698-2.298-24.992-7.325-30.349c-4.49-3.119-11.471-6.173-14.825-6.977
			c-1.4,1.125-2.551,2.299-4.199,3.376c-1.382,0.904-2.957,1.645-4.435,2.467c0.253,3.012-3.167,10.567-6.541,13.168
			c0,3.197,0,4.563,0,7.238c-3.068,1.805-5.291,4.682-6.976,8.372c-0.914,1.133-4.204,9.395-7.005,17.415
			c-2.335,6.685-4.332,13.204-4.332,15.288C186.787,98.573,196.712,104.366,208.139,107.847L208.139,107.847z M220.768,34.969
			c-4.089,5.311-3.846,18.582-0.071,28.042 M235.041,25.629c1.752-5.454-1.922-15.165-9.635-18.955
			c-4.574-3.644-9.903-5.774-15.872-6.627c-3.505-0.331-6.262,1.086-8.372,4.011c-4.765-0.818-9.595-0.662-12.906,1.046
			c-5.627-2.09-7.185-2.88-10.465-2.267c-2.903,0-4.941,3.406-5.232,6.104c0,4.774,2.307,7.674,5.581,7.674
			c11.058,0.47,16.441,2.935,17.267,8.546c0.132,3.075-1.353,4.891-5.407,4.709c-2.819-0.794-5.405-1.737-7.903-2.417
			c-2.936-0.799-5.707-1.332-8.318-1.769c0.117,3.256,0.233,6.512,0.349,9.767c1.999,3.438,5.182,5.396,10.116,4.709
			c3.942-0.387,6.956-0.645,11.83-1.161c3.013-0.318,5.978-0.892,8.967-1.337 M196.074,39.002c-7.845,1.43-9.682,8.102-9.737,12.148
			c0.458,2.844,2.86,5.546,4.723,19.539 M186.337,51.15c-0.494,1.61-2.479,4.366-5.026,7.685
			c-5.14,6.697-12.573,15.688-14.683,22.194 M196.879,17.359c-2.255-0.929-2.69-2.245-4.001-5.271
			c0.561-0.928,3.725-0.826,5.752,0.205c1.999,0.533,3.929,1.432,4.26,2.095C200.398,14.524,199.027,15.309,196.879,17.359
			L196.879,17.359z M225.406,6.675c-3.454,1.649-7.422,2.66-11.838,3.242 M192.877,12.089c2.433,2.895,5.951,3.244,10.012,2.3
			 M142.646,80.593c-0.544-2.474-1.087-4.947-1.632-7.42c-0.613-2.029-0.55-4.192,0-6.453c-3.227-4.39-8.11-8.518-13.081-12.383
			c-1.977,0.058-3.604,1.163-5.407,1.744c-0.98,0.263-1.628,1.163-2.442,1.918c-1.046-0.698-1.57-1.744-3.14-1.744
			c-5.825,0.624-9.639-2.775-12.208-9.593c-0.698-3.488-0.872-7.5-0.175-10.639c0.457-3.715,1.702-7.261,7.326-7.326
			c3.313-0.232,5.058-0.814,7.849-3.14c10.767-0.427,28.843,17.837,42.383,29.127c2.971,6.027,14.366,4.554,19.192,4.151
			 M141.014,73.172c3.686-4.034,15.402-16.098,21.104-18.488c3.89-6.466,12.654-11.312,22.126-14.522"/>
	</g>
	<g>
		<path fill-rule="evenodd" clip-rule="evenodd" fill="#FFFFFF" d="M0,45.355h128.718V97.94H0V45.355L0,45.355z M89.159,32.23
			v10.944h36.345V31.909l-0.001-0.02l-16.15-16.564H19.365L3.214,31.89v0.019v11.266h36.604V32.23v-1.648h0.121l24.016-11.528
			l0.72-0.345l0.709,0.345l23.667,11.528h0.108V32.23L89.159,32.23z M85.863,33.878v7.779h-42.75v-7.779H85.863L85.863,33.878z
			 M47.867,30.417l16.784-8.056l16.54,8.056H47.867L47.867,30.417z M125.504,31.89L125.504,31.89L125.504,31.89z M3.214,31.89"/>
		<path d="M128.718,80.848V97.94H0V80.848h43.952v11.511h41.162V80.848H128.718L128.718,80.848z M81.191,30.417l-16.54-8.056
			l-16.784,8.056H81.191L81.191,30.417z M125.504,43.174H89.159V32.23v-1.648h-0.108L65.384,19.054l-0.709-0.345l-0.72,0.345
			L39.939,30.583h-0.121v1.648v10.944H3.214V31.909V31.89l0.001-0.001l16.15-16.564h89.987l16.15,16.564l0.001,0.001v0.019V43.174
			L125.504,43.174z M0,45.355v-1.608v-0.573V31.909v-0.666c0-0.478,0.208-0.906,0.54-1.201l0.378-0.387l16.168-16.583l0.459-0.471
			c0.313-0.323,0.73-0.485,1.149-0.485v-0.005h0.648h90.032h0.649c0.493,0,0.933,0.222,1.229,0.571l0.38,0.39L127.8,29.654
			l0.459,0.471c0.303,0.312,0.453,0.715,0.453,1.118h0.005v0.666v11.266v0.573v1.608v29.213H85.114V68.29V49.104h-3.837V68.29
			h-5.668V49.104h-3.837V68.29h-5.02V49.104h-3.837V68.29h-5.358V49.104H53.72V68.29h-5.93V49.104h-3.837V68.29v6.279H0V45.355
			L0,45.355z M43.114,41.658h42.75v-7.779h-42.75V41.658z"/>
	</g>
</g>
</svg>
